HIERARCHY
ROOT Hips
{
	OFFSET 0.000000 0.000000 0.000000
	CHANNELS 6 Xposition Yposition Zposition Xrotation Yrotation Zrotation
	JOINT LeftUpLeg_virtual
	{
		OFFSET 0.000000 0.000000 0.000000
		CHANNELS 3 Xrotation Yrotation Zrotation
		JOINT LeftUpLeg
		{
			OFFSET 15.427100 -6.655098 0.678600
			CHANNELS 3 Xrotation Yrotation Zrotation
			JOINT LeftLeg
			{
				OFFSET 4.081073 -39.591068 13.024000
				CHANNELS 3 Xrotation Yrotation Zrotation
				JOINT LeftFoot
				{
					OFFSET -4.081074 -37.707932 -15.979700
					CHANNELS 3 Xrotation Yrotation Zrotation
					JOINT LeftToeBase
					{
						OFFSET 5.346399 -15.068900 20.645000
						CHANNELS 3 Xrotation Yrotation Zrotation
						JOINT LeftToe_End
						{
							OFFSET 2.754700 0.931300 11.300900
							CHANNELS 3 Xrotation Yrotation Zrotation
							End Site
							{
								OFFSET 0 0 0
							}
						}
					}
				}
			}
		}
	}
	JOINT RightUpLeg_virtual
	{
		OFFSET 0.000000 0.000000 0.000000
		CHANNELS 3 Xrotation Yrotation Zrotation
		JOINT RightUpLeg
		{
			OFFSET -15.569500 -6.655098 0.678600
			CHANNELS 3 Xrotation Yrotation Zrotation
			JOINT RightLeg
			{
				OFFSET -4.081825 -39.591045 13.023800
				CHANNELS 3 Xrotation Yrotation Zrotation
				JOINT RightFoot
				{
					OFFSET 4.081824 -37.707954 -15.979600
					CHANNELS 3 Xrotation Yrotation Zrotation
					JOINT RightToeBase
					{
						OFFSET -5.346400 -15.068900 20.645000
						CHANNELS 3 Xrotation Yrotation Zrotation
						JOINT RightToe_End
						{
							OFFSET -2.754700 0.931300 11.300900
							CHANNELS 3 Xrotation Yrotation Zrotation
							End Site
							{
								OFFSET 0 0 0
							}
						}
					}
				}
			}
		}
	}
	JOINT Spine_virtual
	{
		OFFSET 0.000000 0.000000 0.000000
		CHANNELS 3 Xrotation Yrotation Zrotation
		JOINT Spine
		{
			OFFSET -0.279200 12.230698 -2.892100
			CHANNELS 3 Xrotation Yrotation Zrotation
			JOINT Spine1
			{
				OFFSET -0.232667 10.192268 -1.242267
				CHANNELS 3 Xrotation Yrotation Zrotation
				JOINT Spine1_split
				{
					OFFSET -0.232667 10.192268 -1.242267
					CHANNELS 3 Xrotation Yrotation Zrotation
					JOINT Spine2
					{
						OFFSET -0.232667 10.192268 -1.242267
						CHANNELS 3 Xrotation Yrotation Zrotation
						JOINT Neck_virtual
						{
							OFFSET 0.000000 0.000000 0.000000
							CHANNELS 3 Xrotation Yrotation Zrotation
							JOINT Neck
							{
								OFFSET -0.418800 17.814194 8.416900
								CHANNELS 3 Xrotation Yrotation Zrotation
								JOINT Head
								{
									OFFSET 0.000000 7.031097 3.806800
									CHANNELS 3 Xrotation Yrotation Zrotation
									JOINT HeadTop_End
									{
										OFFSET 0.000000 24.646606 12.978600
										CHANNELS 3 Xrotation Yrotation Zrotation
										End Site
										{
											OFFSET 0 0 0
										}
									}
								}
							}
						}
						JOINT LeftShoulder_virtual
						{
							OFFSET 0.000000 0.000000 0.000000
							CHANNELS 3 Xrotation Yrotation Zrotation
							JOINT LeftShoulder
							{
								OFFSET 8.476499 7.247704 -3.868750
								CHANNELS 3 Xrotation Yrotation Zrotation
								JOINT LeftShoulder_split
								{
									OFFSET 8.476499 7.247704 -3.868750
									CHANNELS 3 Xrotation Yrotation Zrotation
									JOINT LeftArm
									{
										OFFSET 9.308998 -2.777710 0.208600
										CHANNELS 3 Xrotation Yrotation Zrotation
										JOINT LeftForeArm
										{
											OFFSET 29.972298 0.000000 0.000000
											CHANNELS 3 Xrotation Yrotation Zrotation
											JOINT LeftHand
											{
												OFFSET 26.026505 0.000000 0.000000
												CHANNELS 3 Xrotation Yrotation Zrotation
												End Site
												{
													OFFSET 0 0 0
												}
											}
										}
									}
								}
							}
						}
						JOINT RightShoulder_virtual
						{
							OFFSET 0.000000 0.000000 0.000000
							CHANNELS 3 Xrotation Yrotation Zrotation
							JOINT RightShoulder
							{
								OFFSET -7.570500 7.247704 -3.868750
								CHANNELS 3 Xrotation Yrotation Zrotation
								JOINT RightShoulder_split
								{
									OFFSET -7.570500 7.247704 -3.868750
									CHANNELS 3 Xrotation Yrotation Zrotation
									JOINT RightArm
									{
										OFFSET -9.308998 -2.777710 0.208500
										CHANNELS 3 Xrotation Yrotation Zrotation
										JOINT RightForeArm
										{
											OFFSET -29.972300 0.000000 0.000000
											CHANNELS 3 Xrotation Yrotation Zrotation
											JOINT RightHand
											{
												OFFSET -26.026505 0.000000 0.000000
												CHANNELS 3 Xrotation Yrotation Zrotation
												End Site
												{
													OFFSET 0 0 0
												}
											}
										}
									}
								}
							}
						}
					}
				}
			}
		}
	}
}
MOTION
Frames: 4
Frame Time: 0.03333333
0.313745 75.168617 2.410046 0.000000 0.000000 0.000000 6.845393 -51.378602 8.141047 -59.701522 26.109730 39.037830 44.420094 -16.655642 3.039005 1.986645 3.130893 -11.548239 -1.710786 -5.419351 0.946262 0.000000 0.000000 0.000000 3.818878 -50.799955 7.557937 -24.307475 2.155114 -30.436515 43.405483 3.890230 -9.973744 -23.007479 -3.056567 24.661359 2.632527 3.591431 2.299374 0.000000 0.000000 0.000000 9.066379 -50.490138 9.338278 13.134639 2.689208 -3.304593 4.457743 6.619685 -3.686859 0.402806 -2.514294 1.285936 0.000000 0.000000 0.000000 -4.170757 6.224477 -2.045248 0.985958 10.743986 -1.120680 -5.201767 24.630755 -1.617676 0.000000 0.000000 0.000000 -5.481805 6.232094 -2.385586 -1.327572 -10.095030 -4.409313 4.065668 -0.868343 -0.457711 -14.534561 1.752380 -44.119327 -23.198008 -27.708006 -15.600570 0.000000 0.000000 0.000000 -5.137083 5.882803 -2.305067 -2.611322 13.079963 0.756035 -1.894537 -4.495723 2.625320 0.006598 -14.598884 58.657350 -10.237348 44.394317 18.348376 0.000000 0.000000 0.000000 
0.244169 75.197990 2.338615 0.000000 0.000000 0.000000 7.101747 -51.814641 8.156453 -59.582616 25.934116 39.363791 44.524518 -16.783354 3.087737 1.249648 2.865327 -11.141939 -1.581180 -5.364185 0.963649 0.000000 0.000000 0.000000 4.080215 -50.703561 7.478655 -24.239320 2.403729 -30.097150 43.318371 3.999352 -9.950327 -23.038955 -2.820644 25.106578 2.279629 3.677041 2.225528 0.000000 0.000000 0.000000 9.175458 -50.752021 9.312443 13.129188 2.725982 -3.479059 4.533415 6.614406 -3.779480 0.547576 -2.440947 1.337552 0.000000 0.000000 0.000000 -4.199698 6.244005 -2.096334 0.671773 10.706211 -1.178082 -5.299934 24.729525 -1.606493 0.000000 0.000000 0.000000 -5.317745 6.255046 -2.446914 -1.337967 -10.127603 -4.308939 3.937575 -0.838773 -0.175490 -14.443072 1.802168 -43.759745 -23.143802 -27.521491 -15.607413 0.000000 0.000000 0.000000 -5.125527 5.881017 -2.437661 -2.501690 13.749767 0.937099 -1.271418 -4.906844 1.923253 0.322326 -14.889053 56.435254 -7.387442 40.724371 16.822443 0.000000 0.000000 0.000000 
0.195035 75.181641 2.038857 0.000000 0.000000 0.000000 7.668297 -52.395788 8.327378 -59.040504 25.819601 39.699542 44.133342 -16.840789 2.995711 0.261964 2.778896 -10.987707 -1.564961 -5.226337 0.959629 0.000000 0.000000 0.000000 4.388455 -50.984169 7.456969 -24.711245 2.627738 -29.583841 43.386284 3.760256 -10.023181 -22.746205 -2.339823 25.368706 2.205952 3.665719 2.280406 0.000000 0.000000 0.000000 9.451995 -51.055644 9.346982 13.131096 2.848299 -3.614581 4.695584 6.623141 -3.919309 0.434675 -2.426411 1.335653 0.000000 0.000000 0.000000 -4.119180 6.258542 -2.223817 0.287220 10.638411 -1.264437 -5.266820 24.752810 -1.709337 0.000000 0.000000 0.000000 -5.049734 6.250542 -2.617978 -1.341876 -9.952207 -4.178546 3.813313 -0.812023 0.026178 -14.834758 1.938302 -43.164897 -22.885189 -27.300589 -15.440908 0.000000 0.000000 0.000000 -5.047654 5.896774 -2.665711 -2.544355 14.479055 1.172247 -1.053776 -4.882882 1.270605 1.224067 -15.625818 54.537373 -1.476732 37.224931 13.423344 0.000000 0.000000 0.000000 
0.090174 75.101913 1.561039 0.000000 0.000000 0.000000 8.338384 -52.861699 8.577953 -58.313566 25.795594 40.047906 43.346679 -16.884006 2.792471 -0.232429 2.733552 -11.229801 -1.735993 -5.025008 0.867457 0.000000 0.000000 0.000000 4.781938 -51.300991 7.572995 -25.603340 2.856852 -29.087450 43.878368 3.090619 -10.223201 -22.296388 -1.793340 25.506266 2.246589 3.531900 2.424985 0.000000 0.000000 0.000000 9.730084 -51.156515 9.431598 13.120070 3.018911 -3.678787 4.900297 6.617782 -4.104650 0.255555 -2.636297 1.252241 0.000000 0.000000 0.000000 -3.931672 6.234355 -2.425095 -0.087108 10.540513 -1.383604 -5.072820 24.651141 -1.922206 0.000000 0.000000 0.000000 -4.760778 6.204264 -2.880713 -1.335574 -9.550788 -3.968606 3.657608 -1.027291 0.160094 -15.703607 2.012303 -42.520400 -22.438198 -27.068938 -15.155814 0.000000 0.000000 0.000000 -4.921149 5.883218 -2.942774 -2.692161 15.225417 1.543854 -0.977369 -4.882302 0.801210 2.736478 -16.009811 53.181424 5.966575 34.804506 9.263515 0.000000 0.000000 0.000000 
